<svg width="35" height="35" viewBox="0 0 35 35" fill="none" xmlns="http://www.w3.org/2000/svg">
<g clip-path="url(#clip0_79_1047)">
<path d="M18.0001 6.00001C21.4061 2.9195 25.7188 3.68872 29.0001 7.00001C32.2799 10.3127 33.0508 15.5587 30.0001 19L17.0001 31L5.00008 19C1.94933 15.5587 2.72169 10.304 6.00008 7.00001C9.28427 3.6931 14.5839 2.91512 18.0001 6.00001ZM27.0001 9.00001C24.8251 6.80612 21.2765 5.9405 19.0001 8.00001L18.0001 10L16.0001 8.00001C13.7164 5.93757 10.1808 6.8032 8.00008 9.00001C5.83962 11.1764 5.00927 14.698 7.00008 17L17.0001 27L28.0001 17C29.9923 14.6966 29.1634 11.1837 27.0001 9.00001Z" fill="white"/>
</g>
<defs>
<clipPath id="clip0_79_1047">
<rect width="35" height="35" fill="white"/>
</clipPath>
</defs>
</svg>
