<svg width="24" height="25" viewBox="0 0 24 25" fill="none" xmlns="http://www.w3.org/2000/svg">
<g clip-path="url(#clip0_703_626)">
<path d="M12.001 4.71772C14.35 2.52084 17.98 2.59376 20.243 4.95522C22.505 7.31772 22.583 11.0802 20.479 13.5344L11.999 22.3802L3.52101 13.5344C1.41701 11.0802 1.49601 7.31147 3.75701 4.95522C6.02201 2.59688 9.64501 2.51772 12.001 4.71772ZM18.827 6.42709C17.327 4.86251 14.907 4.79897 13.337 6.26772L12.002 7.51564L10.666 6.26876C9.09101 4.79793 6.67601 4.86251 5.17201 6.42918C3.68201 7.98126 3.60701 10.4656 4.98001 12.1073L12 19.4313L19.02 12.1083C20.394 10.4656 20.319 7.98439 18.827 6.42709Z" fill="#222222"/>
</g>
<defs>
<clipPath id="clip0_703_626">
<rect width="24" height="25" fill="white"/>
</clipPath>
</defs>
</svg>
